@startuml

left to right direction
skinparam classAttributeIconSize 0

'Classes declaration
class CartItem{
   +CartItem(articleId: int, name: string, quantity: int, price: float)
   +get,set quantity():int
   +getName():string
   +getPrice():float
}
class Cart{
    -items: CartItem[] = null
    +Cart(cartItems: CartItem[])
    +get,set cartItems():CartItem[]
    +getTotal():float
    +count(distinct = false):int
    +add(cartItem: CartItem):void
}


class Error{}
class CartItemException{}
class InvalidArticleIdException{}
class InvalidQuantityException{}
class InvalidPriceException{}
class InvalidNameException{}
class EmptyCartException{}
class UpdateCartException{}
class CartException{}

'Relations
CartItem --> InvalidArticleIdException
CartItem --> InvalidQuantityException : throws
CartItem --> InvalidPriceException : throws
Cart --> EmptyCartException : throws
Cart --> UpdateCartException : throws
Cart o-- CartItem

'Exception inheritance
InvalidArticleIdException -|> CartItemException
InvalidPriceException -|> CartItemException
InvalidQuantityException -|> CartItemException
InvalidNameException -|> CartItemException
CartItemException -|> Error
EmptyCartException -|> CartException
UpdateCartException -|> CartException
CartException -|> Error

@enduml